<svg width="48" height="48" viewBox="0 0 48 48" fill="none" xmlns="http://www.w3.org/2000/svg">
<path d="M36.2311 12.0179C34.0764 10.613 32.5213 8.36524 32.0362 5.74493C31.9314 5.17879 31.8738 4.59614 31.8738 4H24.997L24.9859 31.5599C24.8703 34.6461 22.3302 37.1232 19.2163 37.1232C18.2485 37.1232 17.3372 36.8812 16.5348 36.459C14.6949 35.4907 13.4357 33.562 13.4357 31.3426C13.4357 28.155 16.029 25.5617 19.2163 25.5617C19.8113 25.5617 20.3821 25.6598 20.922 25.829V18.8085C20.3632 18.7324 19.7956 18.6848 19.2163 18.6848C12.2368 18.6848 6.55884 24.3631 6.55884 31.3426C6.55884 35.6248 8.69835 39.4144 11.9624 41.7059C14.0184 43.1493 16.5192 44 19.2163 44C26.1958 44 31.8738 38.3221 31.8738 31.3426V17.3673C34.571 19.3032 37.8754 20.444 41.4412 20.444V13.5672C39.5204 13.5672 37.7314 12.9962 36.2311 12.0179" fill="white"/>
</svg>
